<?xml version="1.0" standalone="no"?>
<!DOCTYPE svg PUBLIC "-//W3C//DTD SVG 20010904//EN"
 "http://www.w3.org/TR/2001/REC-SVG-20010904/DTD/svg10.dtd">
<svg version="1.0" xmlns="http://www.w3.org/2000/svg"
 width="512.000000pt" height="512.000000pt" viewBox="0 0 512.000000 512.000000"
 preserveAspectRatio="xMidYMid meet">
<metadata>
Created by potrace 1.14, written by Peter Selinger 2001-2017
</metadata>
<g transform="translate(0.000000,512.000000) scale(0.100000,-0.100000)"
fill="#000000" stroke="none">
<path d="M2365 4793 c-207 -21 -498 -91 -622 -148 -17 -8 -33 -15 -36 -15 -17
0 -213 -99 -300 -151 -416 -250 -737 -625 -920 -1074 -41 -101 -97 -276 -112
-350 -44 -225 -50 -285 -50 -495 0 -186 6 -256 29 -385 66 -362 197 -663 420
-965 62 -84 282 -316 358 -378 339 -274 733 -441 1175 -498 117 -16 482 -9
578 10 11 2 40 7 65 11 71 12 78 13 164 35 532 138 984 455 1299 912 26 38 47
71 47 75 0 3 10 20 23 37 13 17 49 83 80 146 154 315 231 627 232 946 0 106
-1 112 -28 147 -24 31 -74 68 -92 67 -3 0 -444 0 -980 0 l-975 0 -2 989 c-3
982 -3 990 -24 1017 -45 61 -66 69 -187 69 -62 0 -125 -1 -142 -2z"/>
<path d="M3140 4789 c-14 -5 -36 -20 -48 -32 -53 -50 -52 -32 -52 -847 l0
-756 24 -35 c14 -20 37 -44 53 -55 27 -18 56 -19 804 -19 l776 0 36 28 c59 44
70 83 62 212 -7 114 -9 139 -19 190 -3 17 -8 44 -11 60 -16 89 -70 247 -122
355 -164 342 -456 625 -798 773 -125 54 -258 95 -365 112 -25 4 -54 9 -65 11
-53 11 -252 13 -275 3z"/>
</g>
</svg>
