<?xml version="1.0" standalone="no"?>
<!DOCTYPE svg PUBLIC "-//W3C//DTD SVG 20010904//EN"
 "http://www.w3.org/TR/2001/REC-SVG-20010904/DTD/svg10.dtd">
<svg version="1.0" xmlns="http://www.w3.org/2000/svg"
 width="1024.000000pt" height="1024.000000pt" viewBox="0 0 1024.000000 1024.000000"
 preserveAspectRatio="xMidYMid meet">
<metadata>
Created by potrace 1.14, written by Peter Selinger 2001-2017
</metadata>
<g transform="translate(0.000000,1024.000000) scale(0.100000,-0.100000)"
fill="#000000" stroke="none">
<path d="M4786 9603 c-3 -3 -35 -7 -73 -10 -90 -5 -105 -8 -208 -40 -51 -16
-196 -81 -205 -92 -3 -3 -25 -19 -49 -35 -69 -45 -183 -160 -237 -238 -27 -40
-53 -76 -57 -79 -5 -3 -8 -9 -8 -13 1 -3 -10 -31 -24 -61 -14 -31 -25 -61 -25
-68 0 -7 -4 -17 -9 -23 -12 -12 -41 -147 -45 -206 -2 -25 -6 -50 -9 -55 -3 -5
-2 -15 3 -23 4 -7 4 -24 0 -36 -6 -14 -5 -26 0 -29 6 -3 6 -15 0 -30 -6 -15
-6 -27 0 -30 5 -3 6 -15 1 -28 -5 -12 -5 -34 0 -49 4 -16 4 -28 -1 -28 -5 0
-5 -13 0 -30 5 -17 5 -30 0 -30 -5 0 -5 -13 0 -30 5 -17 5 -30 0 -30 -5 0 -5
-13 0 -30 5 -17 5 -30 0 -30 -5 0 -5 -13 0 -30 5 -17 5 -30 0 -30 -5 0 -5 -13
0 -30 5 -17 5 -30 0 -30 -5 0 -5 -13 0 -30 5 -17 5 -30 0 -30 -5 0 -5 -13 0
-30 5 -17 5 -30 0 -30 -5 0 -5 -13 0 -30 5 -17 5 -30 0 -30 -5 0 -5 -13 0 -30
5 -17 5 -30 0 -30 -5 0 -5 -12 -1 -28 5 -15 5 -37 0 -49 -5 -13 -4 -25 1 -28
6 -4 7 -13 1 -24 -5 -9 -6 -22 -3 -28 8 -13 7 -77 -1 -90 -3 -5 -2 -15 3 -23
4 -7 4 -24 0 -36 -6 -14 -5 -26 0 -29 5 -3 5 -18 0 -35 -5 -17 -5 -32 0 -35 5
-3 6 -15 0 -29 -4 -12 -4 -29 0 -36 5 -8 5 -21 0 -30 -5 -9 -5 -22 0 -30 5 -8
5 -21 0 -30 -5 -9 -5 -22 0 -30 4 -7 4 -24 0 -36 -6 -14 -5 -26 0 -29 5 -3 5
-18 0 -35 -5 -17 -5 -32 0 -35 5 -3 6 -15 0 -29 -4 -12 -4 -29 0 -36 5 -8 5
-21 0 -30 -5 -9 -5 -22 0 -30 5 -8 5 -21 0 -30 -5 -9 -5 -22 0 -30 4 -7 4 -24
0 -36 -6 -14 -5 -26 0 -29 5 -3 5 -18 0 -35 -5 -17 -5 -32 0 -35 5 -3 6 -15 0
-29 -4 -12 -4 -29 0 -36 5 -8 5 -21 0 -30 -5 -9 -5 -22 0 -30 5 -8 5 -21 0
-30 -5 -9 -5 -22 0 -30 4 -7 4 -24 0 -36 -6 -14 -5 -26 0 -29 5 -3 5 -18 0
-35 -5 -17 -5 -32 0 -35 5 -3 6 -15 0 -29 -4 -12 -5 -29 0 -36 4 -7 5 -20 2
-29 -3 -9 -5 -31 -4 -51 1 -19 2 -41 2 -47 0 -7 0 -20 0 -28 0 -8 0 -22 0 -30
0 -8 0 -22 0 -30 0 -8 0 -22 0 -30 0 -8 0 -22 0 -30 0 -8 0 -22 0 -30 0 -8 0
-22 0 -30 0 -8 0 -22 0 -30 0 -8 0 -22 0 -30 0 -8 0 -22 0 -30 0 -8 0 -22 0
-30 0 -8 0 -22 0 -30 0 -8 0 -22 0 -30 0 -8 0 -22 0 -30 0 -8 0 -22 0 -30 0
-8 0 -22 0 -30 0 -8 0 -22 0 -30 0 -8 0 -22 0 -30 0 -8 0 -22 0 -30 0 -8 0
-22 0 -30 0 -8 0 -22 0 -30 0 -8 0 -22 0 -30 0 -8 0 -22 0 -30 0 -8 0 -22 0
-30 0 -8 0 -22 0 -30 0 -8 0 -22 0 -30 0 -8 0 -22 0 -30 0 -8 0 -22 0 -30 0
-8 0 -22 0 -30 0 -8 0 -22 0 -30 0 -8 0 -22 0 -30 0 -8 0 -22 0 -30 0 -8 0
-22 0 -30 0 -8 0 -22 0 -30 0 -8 0 -22 0 -30 0 -8 0 -22 0 -30 0 -8 0 -22 0
-30 0 -8 0 -22 0 -30 0 -8 0 -22 0 -30 0 -8 0 -22 0 -30 0 -8 0 -22 0 -30 0
-8 0 -22 0 -30 0 -8 0 -22 0 -30 0 -8 0 -22 0 -30 0 -8 0 -22 0 -30 0 -8 0
-22 0 -30 0 -8 0 -22 0 -30 0 -8 0 -22 0 -30 0 -8 0 -22 0 -30 0 -8 0 -22 0
-30 0 -8 0 -22 0 -30 0 -8 0 -22 0 -30 0 -8 0 -22 0 -30 0 -8 0 -22 0 -30 0
-8 0 -22 0 -30 0 -8 0 -22 0 -30 0 -8 0 -22 0 -30 0 -8 0 -22 0 -30 0 -8 0
-22 0 -30 0 -8 0 -22 0 -30 0 -8 0 -22 0 -30 0 -8 0 -22 0 -30 0 -8 0 -22 0
-30 0 -8 0 -22 0 -30 0 -8 0 -22 0 -30 0 -8 0 -22 0 -30 0 -8 0 -22 0 -30 0
-8 0 -22 0 -30 0 -8 0 -22 0 -30 0 -8 0 -22 0 -30 0 -8 0 -22 0 -30 0 -8 0
-22 0 -30 0 -8 0 -22 0 -30 0 -8 0 -22 0 -30 0 -8 0 -22 0 -30 0 -8 0 -22 0
-30 0 -8 0 -22 0 -30 0 -8 0 -22 0 -30 0 -8 0 -22 0 -30 0 -8 0 -22 0 -30 0
-8 0 -21 0 -27 0 -7 1 -29 2 -48 1 -20 -1 -42 -4 -51 -3 -9 -2 -22 2 -29 5 -7
4 -24 0 -36 -6 -14 -5 -26 0 -29 5 -3 5 -18 0 -35 -5 -17 -5 -32 0 -35 5 -3 6
-15 0 -29 -4 -12 -4 -29 0 -36 5 -8 5 -21 0 -30 -5 -9 -5 -22 0 -30 5 -8 5
-21 0 -30 -5 -9 -5 -22 0 -30 4 -7 4 -24 0 -36 -6 -14 -5 -26 0 -29 5 -3 5
-18 0 -35 -5 -17 -5 -32 0 -35 5 -3 6 -15 0 -29 -4 -12 -4 -29 0 -36 5 -8 5
-21 0 -30 -5 -9 -5 -22 0 -30 5 -8 5 -21 0 -30 -5 -9 -5 -22 0 -30 4 -7 4 -24
0 -36 -6 -14 -5 -26 0 -29 5 -3 5 -18 0 -35 -5 -17 -5 -32 0 -35 5 -3 6 -15 0
-29 -4 -12 -4 -29 0 -36 5 -8 5 -21 0 -30 -5 -9 -5 -22 0 -30 5 -8 5 -21 0
-30 -5 -9 -5 -22 0 -30 4 -7 4 -24 0 -36 -6 -14 -5 -26 0 -29 5 -3 5 -18 0
-35 -5 -17 -5 -32 0 -35 5 -3 6 -15 0 -29 -4 -12 -4 -29 0 -36 5 -8 6 -18 3
-23 -8 -13 -9 -97 -1 -97 4 0 3 -13 -2 -30 -5 -17 -5 -30 0 -30 5 0 5 -13 0
-30 -5 -17 -5 -30 0 -30 5 0 5 -13 0 -30 -5 -17 -5 -30 0 -30 5 0 5 -13 0 -30
-5 -17 -5 -30 0 -30 5 0 5 -13 0 -30 -5 -17 -5 -30 0 -30 5 0 5 -13 0 -30 -5
-17 -5 -30 0 -30 5 0 5 -13 0 -30 -5 -17 -5 -30 0 -30 5 0 5 -13 0 -30 -5 -17
-5 -30 0 -30 5 0 5 -13 0 -30 -5 -17 -5 -30 0 -30 5 0 5 -13 0 -30 -5 -17 -5
-30 0 -30 5 0 5 -13 0 -30 -5 -17 -5 -30 0 -30 5 0 5 -13 0 -30 -5 -17 -5 -30
0 -30 5 0 5 -13 0 -30 -5 -17 -5 -30 0 -30 5 0 5 -13 0 -30 -5 -18 -5 -30 0
-30 6 0 6 -10 0 -24 -5 -13 -6 -26 -3 -29 2 -3 6 -38 8 -79 13 -278 177 -560
420 -723 101 -68 242 -130 319 -140 15 -3 36 -7 45 -10 21 -6 158 -18 191 -15
14 1 31 1 38 1 20 -2 34 -2 102 -1 36 0 98 0 138 -1 39 0 76 2 81 6 5 3 12 1
15 -4 3 -5 21 -5 41 -1 19 4 37 4 40 0 3 -4 21 -4 40 0 20 4 38 4 41 -1 3 -5
9 -7 13 -4 5 2 55 7 112 10 57 2 115 7 129 11 14 3 34 7 45 8 11 2 20 4 20 5
0 2 8 4 18 7 9 2 23 5 30 7 70 18 207 86 278 140 58 43 139 114 139 121 0 2
14 19 31 37 82 87 180 274 196 374 2 11 8 37 14 58 9 33 22 167 20 205 -1 6
-1 19 -1 27 0 8 0 22 0 30 0 8 0 22 0 30 0 8 0 22 0 30 0 8 0 22 0 30 0 8 0
22 0 30 0 8 0 22 0 30 0 8 0 22 0 30 0 8 0 22 0 30 0 8 0 22 0 30 0 8 0 22 0
30 0 8 0 22 0 30 0 8 0 22 0 30 0 8 0 22 0 30 0 8 0 22 0 30 0 8 0 22 0 30 0
8 0 22 0 30 0 8 0 22 0 30 0 8 0 22 0 30 0 8 0 22 0 30 0 8 0 22 0 30 0 8 0
22 0 30 0 8 0 22 0 30 0 8 0 22 0 30 0 8 0 22 0 30 0 8 0 22 0 30 0 8 0 22 0
30 0 8 0 22 0 30 0 8 0 22 0 30 0 8 0 22 0 30 0 8 0 22 0 30 0 8 0 22 0 30 0
8 0 22 0 30 0 8 0 22 0 30 0 8 0 22 0 30 0 8 0 22 0 30 0 8 0 22 0 30 0 8 0
22 0 30 0 8 0 22 0 30 0 8 0 22 0 30 0 8 0 22 0 30 0 8 0 22 0 30 0 8 0 22 0
30 0 8 0 22 0 30 0 8 0 22 0 30 0 8 0 22 0 30 0 8 0 22 0 30 0 8 0 22 0 30 0
8 0 22 0 30 0 8 0 22 0 30 0 8 0 22 0 30 0 8 0 22 0 30 0 8 0 22 0 30 0 8 0
22 0 30 0 8 0 22 0 30 0 8 0 22 0 30 0 8 0 22 0 30 0 8 0 22 0 30 0 8 0 22 0
30 0 8 0 22 0 30 0 8 0 22 0 30 0 8 0 22 0 30 0 8 0 22 0 30 0 8 0 22 0 30 0
8 0 22 0 30 0 8 0 22 0 30 0 8 0 22 0 30 0 8 0 22 0 30 0 8 0 22 0 30 0 8 0
22 0 30 0 8 0 22 0 30 0 8 0 21 0 28 0 6 -1 28 -2 47 -1 20 1 42 4 51 3 9 2
22 -2 29 -5 7 -4 24 0 36 6 14 5 26 0 29 -5 3 -5 18 0 35 5 17 5 32 0 35 -5 3
-6 15 0 29 4 12 4 29 0 36 -5 8 -5 21 0 30 5 9 5 22 0 30 -5 8 -5 21 0 30 5 9
5 22 0 30 -4 7 -4 24 0 36 6 14 5 26 0 29 -5 3 -5 18 0 35 5 17 5 32 0 35 -5
3 -6 15 0 29 4 12 4 29 0 36 -5 8 -5 21 0 30 5 9 5 22 0 30 -5 8 -5 21 0 30 5
9 5 22 0 30 -4 7 -4 24 0 36 6 14 5 26 0 29 -5 3 -5 18 0 35 5 17 5 32 0 35
-5 3 -6 15 0 29 4 12 4 29 0 36 -5 8 -5 21 0 30 5 9 5 22 0 30 -5 8 -5 21 0
30 5 9 5 22 0 30 -4 7 -4 24 0 36 6 14 5 26 0 29 -5 3 -5 18 0 35 5 17 5 32 0
35 -5 3 -6 15 0 29 4 12 4 29 0 36 -5 8 -5 21 0 30 5 9 5 22 0 30 -5 8 -5 21
0 30 5 9 5 22 0 30 -4 7 -4 24 0 36 6 14 5 26 0 29 -5 3 -5 18 0 35 5 17 5 32
0 35 -5 3 -6 15 0 29 4 12 4 29 0 36 -5 8 -5 21 0 30 5 9 5 22 0 30 -5 8 -5
21 0 30 5 9 5 22 0 30 -4 7 -4 24 0 36 6 14 5 26 0 29 -5 3 -5 18 0 35 5 17 5
32 0 35 -5 3 -6 15 0 29 4 12 4 29 0 36 -5 8 -5 21 0 30 5 9 5 22 0 30 -5 8
-5 21 0 30 5 9 5 22 0 30 -4 7 -4 24 0 36 6 14 5 26 0 29 -5 3 -5 18 0 35 5
17 5 32 0 35 -5 3 -6 15 0 29 4 12 4 29 0 36 -5 8 -5 21 0 30 5 9 5 22 0 30
-5 8 -5 21 0 30 5 9 5 22 0 30 -4 7 -4 24 0 36 6 14 5 26 0 29 -5 3 -5 18 0
35 5 17 5 32 0 35 -5 3 -6 15 0 29 4 12 5 29 0 36 -4 7 -5 20 -2 29 3 9 5 31
4 51 -1 19 -2 41 -2 48 0 6 0 19 0 27 0 8 0 22 0 30 0 8 0 22 0 30 0 8 0 22 0
30 0 8 0 22 0 30 0 8 0 22 0 30 0 8 0 22 0 30 0 8 0 22 0 30 0 8 0 22 0 30 0
8 0 22 0 30 0 8 0 22 0 30 0 8 0 22 0 30 0 8 0 22 0 30 0 8 0 22 0 30 0 8 0
22 0 30 0 8 0 22 0 30 0 8 0 22 0 30 0 8 0 22 0 30 0 8 0 22 0 30 0 8 0 22 0
30 0 8 0 22 0 30 0 8 0 22 0 30 0 8 0 22 0 30 0 8 0 22 0 30 0 8 0 22 0 30 0
8 0 22 0 30 0 8 0 22 0 30 0 8 0 22 0 30 0 8 0 22 0 30 0 8 0 22 0 30 0 8 0
22 0 30 0 8 0 22 0 30 0 8 0 22 0 30 0 8 0 22 0 30 0 8 0 22 0 30 0 8 0 22 0
30 0 8 0 22 0 30 0 8 0 22 0 30 0 8 0 22 0 30 0 8 0 22 0 30 0 8 0 22 0 30 0
8 0 22 0 30 0 8 0 22 0 30 0 8 0 22 0 30 0 8 0 22 0 30 0 8 0 22 0 30 0 8 0
22 0 30 0 8 0 22 0 30 0 8 0 22 0 30 0 8 0 22 0 30 0 8 0 22 0 30 0 8 0 22 0
30 0 8 0 22 0 30 0 8 0 22 0 30 0 8 0 22 0 30 0 8 0 22 0 30 0 8 0 22 0 30 0
8 0 22 0 30 0 8 0 22 0 30 0 8 0 22 0 30 0 8 0 22 0 30 0 8 0 22 0 30 0 8 0
22 0 30 0 8 0 22 0 30 0 8 0 22 0 30 0 8 0 22 0 30 0 8 0 22 0 30 0 8 0 22 0
30 0 8 0 22 0 30 0 8 0 22 0 30 0 8 0 21 1 28 2 45 -11 200 -21 242 -33 149
-115 320 -199 415 -82 93 -125 131 -210 188 -89 60 -241 128 -255 115 -3 -4
-6 -2 -6 4 0 6 -21 14 -47 18 -27 5 -55 10 -63 12 -8 2 -46 5 -83 7 -38 2 -71
6 -73 9 -3 2 -21 1 -40 -3 -19 -4 -36 -4 -39 0 -3 4 -21 4 -40 0 -19 -4 -37
-4 -40 0 -3 4 -21 4 -40 0 -19 -4 -37 -4 -40 0 -3 4 -20 5 -37 1 -33 -7 -92
-5 -115 4 -7 2 -13 1 -13 -4 0 -5 -18 -5 -40 -1 -22 4 -40 4 -40 0 0 -4 -18
-4 -40 0 -22 4 -42 4 -45 0 -3 -4 -23 -4 -45 0 -21 4 -42 5 -44 3z"/>
<path d="M7947 8323 c-4 -3 -26 -7 -49 -9 -23 -2 -67 -9 -97 -15 -31 -7 -61
-13 -66 -15 -39 -7 -182 -73 -243 -110 -95 -60 -210 -169 -276 -263 -53 -76
-116 -197 -116 -223 0 -8 -4 -18 -9 -24 -11 -11 -40 -143 -45 -206 -2 -26 -7
-52 -11 -57 -3 -6 -1 -11 5 -11 6 0 8 -4 5 -10 -9 -14 -12 -90 -3 -90 3 0 3
-14 -2 -30 -5 -19 -5 -28 1 -25 5 4 5 -3 0 -17 -5 -14 -5 -31 0 -40 6 -10 6
-19 0 -23 -7 -4 -7 -15 -1 -30 6 -16 6 -25 0 -25 -6 0 -5 -11 1 -27 6 -16 11
-28 11 -28 1 0 -4 -10 -11 -22 -8 -16 -8 -23 -1 -23 8 0 8 -6 0 -20 -8 -14 -8
-20 0 -20 8 0 8 -6 0 -20 -8 -14 -8 -20 0 -20 8 0 8 -6 0 -20 -8 -14 -8 -20 0
-20 8 0 8 -6 0 -20 -8 -14 -8 -20 0 -20 8 0 8 -6 0 -20 -8 -14 -8 -20 0 -20 8
0 8 -6 0 -20 -8 -14 -8 -20 0 -20 8 0 8 -6 0 -20 -8 -14 -8 -20 0 -20 8 0 8
-6 0 -20 -8 -14 -8 -20 0 -20 8 0 8 -6 0 -20 -8 -14 -8 -20 0 -20 8 0 8 -6 0
-20 -8 -14 -8 -20 0 -20 8 0 8 -6 0 -20 -8 -14 -8 -20 0 -20 8 0 8 -6 0 -20
-8 -14 -8 -20 0 -20 8 0 8 -6 0 -20 -8 -14 -8 -20 0 -20 8 0 8 -6 0 -20 -8
-14 -8 -20 0 -20 6 0 8 -4 5 -10 -11 -18 -14 -50 -4 -55 5 -4 5 -14 -1 -26 -7
-12 -7 -19 -1 -19 6 0 6 -11 1 -30 -5 -18 -5 -30 0 -30 6 0 6 -10 0 -25 -6
-15 -6 -26 0 -30 6 -4 7 -13 1 -24 -6 -10 -6 -23 -1 -31 5 -8 5 -21 -1 -31 -6
-11 -5 -20 1 -24 6 -4 6 -15 0 -30 -6 -16 -6 -25 1 -25 6 0 6 -6 0 -18 -6 -11
-6 -24 0 -34 6 -11 6 -19 -1 -23 -7 -4 -7 -12 0 -25 6 -12 7 -21 0 -25 -6 -4
-6 -15 0 -30 6 -16 6 -25 0 -25 -6 0 -6 -9 0 -24 5 -15 5 -27 -2 -34 -6 -6 -6
-12 1 -16 7 -4 7 -15 1 -31 -6 -15 -6 -27 0 -30 6 -4 7 -13 1 -24 -6 -10 -6
-23 -1 -31 5 -8 5 -21 -1 -31 -6 -11 -5 -20 1 -24 7 -4 7 -12 0 -25 -7 -13 -7
-21 0 -25 6 -4 7 -13 1 -24 -6 -10 -6 -23 -1 -31 5 -8 5 -21 -1 -31 -6 -11 -5
-20 1 -24 6 -3 6 -15 0 -29 -5 -15 -5 -27 2 -34 6 -6 6 -12 -1 -16 -8 -5 -8
-13 -1 -26 7 -13 7 -21 0 -25 -7 -5 -8 -11 -1 -19 6 -7 6 -17 1 -26 -5 -8 -5
-21 1 -31 6 -11 5 -20 -1 -24 -6 -3 -6 -15 0 -30 6 -15 6 -27 0 -30 -6 -4 -7
-13 -1 -23 6 -11 6 -24 0 -34 -6 -11 -6 -19 1 -23 7 -4 7 -13 0 -26 -7 -12 -7
-19 -1 -19 6 0 6 -11 1 -30 -5 -18 -5 -30 0 -30 6 0 6 -10 0 -25 -6 -15 -6
-26 0 -30 6 -4 7 -13 1 -24 -6 -10 -6 -23 -1 -31 5 -8 5 -21 -1 -31 -6 -11 -5
-20 1 -24 6 -4 6 -15 0 -30 -6 -17 -6 -25 1 -25 7 0 7 -6 0 -17 -6 -11 -6 -24
0 -35 6 -10 5 -19 -1 -23 -7 -4 -7 -12 0 -25 6 -12 7 -21 0 -25 -6 -4 -6 -15
0 -30 6 -16 6 -25 0 -25 -6 0 -6 -9 0 -24 5 -15 5 -27 -2 -34 -6 -6 -6 -12 1
-16 7 -4 7 -15 1 -31 -6 -15 -6 -27 0 -30 6 -4 7 -13 1 -24 -6 -10 -6 -23 -1
-31 5 -8 5 -21 -1 -31 -6 -11 -5 -20 1 -24 7 -4 7 -12 0 -25 -7 -13 -7 -21 0
-25 6 -4 7 -13 1 -24 -6 -10 -6 -23 -1 -31 5 -8 5 -21 -1 -31 -6 -11 -5 -20 1
-24 6 -3 6 -15 0 -29 -5 -15 -5 -27 2 -34 6 -6 6 -12 -1 -16 -8 -5 -8 -13 -1
-26 7 -13 7 -21 0 -25 -7 -5 -8 -11 -1 -19 6 -7 6 -17 1 -26 -5 -8 -5 -21 1
-31 6 -11 5 -20 -1 -24 -6 -3 -6 -15 0 -30 6 -15 6 -27 0 -30 -6 -4 -6 -14 2
-28 6 -12 11 -22 11 -22 0 0 -5 -10 -12 -22 -8 -16 -8 -23 -1 -23 8 0 8 -6 0
-20 -8 -14 -8 -20 0 -20 8 0 8 -6 0 -20 -8 -14 -8 -20 0 -20 8 0 8 -6 0 -20
-8 -14 -8 -20 0 -20 8 0 8 -6 0 -20 -8 -14 -8 -20 0 -20 8 0 8 -6 0 -20 -8
-14 -8 -20 0 -20 8 0 8 -6 0 -20 -8 -14 -8 -20 0 -20 8 0 8 -6 0 -20 -8 -14
-8 -20 0 -20 8 0 8 -6 0 -20 -8 -14 -8 -20 0 -20 8 0 8 -6 0 -20 -8 -14 -8
-20 0 -20 8 0 8 -6 0 -20 -8 -14 -8 -20 0 -20 8 0 8 -6 0 -20 -8 -14 -8 -20 0
-20 8 0 8 -6 0 -20 -8 -14 -8 -20 0 -20 8 0 8 -6 0 -20 -8 -14 -8 -20 0 -20 8
0 8 -6 0 -20 -8 -14 -8 -20 0 -20 7 0 7 -7 -1 -22 -7 -13 -12 -23 -11 -23 0 0
5 -12 11 -27 6 -17 7 -28 1 -28 -6 0 -6 -9 0 -25 6 -15 6 -26 0 -30 -6 -4 -7
-13 -1 -23 6 -11 6 -24 0 -35 -7 -11 -7 -17 0 -17 6 0 6 -11 1 -30 -5 -19 -5
-30 1 -30 6 0 6 -7 -1 -19 -7 -13 -7 -22 0 -26 7 -4 7 -12 0 -25 -7 -13 -7
-21 0 -25 6 -4 7 -13 1 -24 -6 -10 -6 -23 -1 -31 5 -8 5 -21 -1 -31 -6 -11 -5
-20 1 -24 6 -4 7 -13 1 -24 -6 -10 -6 -23 -1 -31 5 -8 5 -19 0 -25 -5 -6 -5
-17 0 -25 5 -8 5 -21 -1 -32 -6 -12 -6 -18 0 -18 6 0 6 -11 1 -30 -5 -17 -5
-30 0 -30 5 0 5 -13 0 -30 -5 -19 -5 -30 1 -30 6 0 6 -7 -1 -19 -7 -13 -7 -22
0 -26 7 -4 7 -12 0 -25 -7 -13 -7 -21 0 -25 6 -4 7 -13 1 -24 -6 -10 -6 -23
-1 -31 5 -8 5 -21 -1 -31 -6 -11 -5 -20 1 -24 6 -4 7 -13 1 -24 -6 -10 -6 -23
-1 -31 5 -8 5 -19 0 -25 -5 -6 -5 -17 0 -25 5 -8 5 -21 -1 -32 -7 -12 -6 -18
1 -18 7 0 8 -6 1 -18 -6 -11 -6 -24 0 -34 6 -10 6 -19 0 -23 -7 -4 -7 -15 -1
-30 6 -16 6 -25 0 -25 -6 0 -6 -9 -1 -22 11 -30 11 -39 0 -60 -7 -12 -6 -18 1
-18 8 0 8 -6 0 -20 -8 -14 -8 -20 0 -20 8 0 8 -6 0 -20 -8 -14 -8 -20 0 -20 8
0 8 -6 0 -20 -8 -14 -8 -20 0 -20 8 0 8 -6 0 -20 -8 -14 -8 -20 0 -20 8 0 8
-6 0 -20 -8 -14 -8 -20 0 -20 8 0 8 -6 0 -20 -8 -14 -8 -20 0 -20 7 0 8 -6 2
-17 -5 -10 -6 -27 -2 -38 4 -11 3 -26 -2 -32 -6 -7 -7 -13 -2 -13 5 0 10 -12
10 -28 3 -67 9 -102 17 -102 4 0 6 -4 2 -9 -3 -6 7 -47 22 -93 83 -254 256
-453 493 -569 74 -36 164 -70 195 -74 6 0 30 -4 54 -9 78 -15 233 -22 250 -12
4 3 13 1 20 -3 7 -5 28 -5 46 -1 18 4 39 4 46 0 7 -5 22 -5 33 0 11 4 32 4 46
0 14 -4 34 -4 45 0 11 4 34 4 52 -1 18 -4 33 -4 33 0 0 4 19 5 43 1 23 -3 64
-3 90 1 26 3 50 3 52 -1 2 -4 25 -4 50 0 25 4 48 3 51 -2 3 -4 11 -5 17 -1 7
4 23 8 37 9 50 5 95 12 110 18 8 3 26 7 40 10 14 2 52 14 85 27 33 13 63 22
68 21 4 -1 7 2 7 7 0 5 10 13 23 17 32 10 146 85 186 122 18 18 35 32 37 32 7
0 78 81 121 139 61 81 127 219 149 312 34 141 33 92 33 3134 0 3233 4 2971
-42 3162 -2 7 -6 16 -10 19 -4 4 -7 13 -7 20 0 22 -59 141 -103 206 -56 84
-95 127 -187 209 -52 45 -198 133 -240 143 -3 1 -14 7 -25 13 -34 18 -190 54
-253 57 -33 2 -65 7 -71 10 -6 4 -11 3 -11 -3 0 -6 -11 -7 -28 -2 -15 5 -37 4
-50 0 -13 -5 -22 -4 -22 1 0 6 -9 6 -25 0 -15 -6 -26 -6 -30 0 -4 6 -13 7 -23
1 -11 -6 -24 -6 -34 0 -10 6 -19 6 -22 0 -4 -5 -18 -6 -34 -2 -15 5 -37 4 -50
0 -13 -5 -22 -4 -22 1 0 6 -9 6 -25 0 -16 -6 -25 -6 -25 0 0 6 -9 6 -25 0 -15
-6 -26 -6 -30 0 -4 7 -13 6 -25 0 -13 -7 -21 -7 -25 0 -4 6 -13 7 -23 1 -11
-6 -24 -6 -35 0 -11 7 -17 7 -17 0 0 -6 -11 -7 -27 -2 -16 4 -39 5 -53 1 -14
-4 -30 -3 -36 2 -6 4 -14 5 -17 1z"/>
<path d="M1608 5765 c-2 -2 -37 -6 -78 -9 -90 -7 -120 -12 -140 -20 -8 -3 -27
-7 -41 -10 -49 -8 -184 -67 -257 -113 -96 -59 -216 -174 -277 -265 -28 -40
-54 -76 -58 -79 -5 -3 -8 -9 -8 -13 1 -3 -10 -31 -24 -61 -14 -31 -25 -62 -25
-70 0 -7 -4 -16 -9 -19 -5 -3 -12 -20 -15 -38 -3 -18 -9 -44 -12 -58 -22 -105
-24 -263 -22 -1850 2 -938 6 -1714 10 -1725 3 -11 11 -41 17 -67 22 -94 64
-190 127 -288 126 -198 333 -349 554 -406 89 -23 99 -24 174 -29 37 -2 70 -6
73 -8 2 -3 20 -1 39 3 19 4 36 4 39 0 3 -4 21 -4 40 0 19 4 37 4 40 0 3 -4 21
-4 40 0 19 4 37 4 40 0 3 -4 20 -5 37 -1 41 9 45 9 84 1 18 -4 38 -4 44 0 7 4
26 4 41 0 16 -5 31 -5 34 -1 2 5 23 5 45 1 22 -4 40 -4 40 0 0 4 20 4 45 0 25
-4 45 -4 45 -1 0 4 17 6 37 5 34 -2 94 6 163 21 14 3 40 8 58 11 18 3 35 10
38 15 3 5 12 9 20 9 27 0 147 62 226 117 91 64 184 157 236 237 15 22 30 43
33 46 15 13 97 202 100 232 0 4 5 22 11 40 9 32 17 77 22 128 1 14 5 30 9 37
4 6 3 14 -2 17 -6 4 -6 18 -1 36 5 18 5 32 -1 35 -5 4 -5 13 0 24 6 10 6 23 1
31 -5 8 -5 21 1 31 6 11 5 20 -1 24 -7 4 -7 12 0 25 7 13 7 21 0 25 -6 4 -7
13 -1 24 6 10 6 23 1 31 -5 8 -5 21 1 31 6 11 5 20 -1 24 -6 3 -6 15 0 30 6
15 6 27 0 30 -6 3 -6 15 0 29 5 15 5 27 -2 34 -6 6 -6 12 1 16 8 5 8 13 1 26
-7 13 -7 21 0 25 7 4 7 12 0 25 -7 13 -7 21 0 25 6 4 7 13 1 23 -6 11 -6 24 0
35 7 11 7 17 0 17 -7 0 -7 8 -1 25 6 15 6 26 0 30 -6 4 -7 13 -1 24 6 10 6 23
1 31 -5 8 -5 21 1 31 6 11 5 20 -1 24 -6 4 -6 15 0 30 6 15 6 25 0 25 -5 0 -5
12 0 30 5 19 5 30 -1 30 -6 0 -6 7 1 19 7 13 7 22 0 26 -7 4 -7 12 0 25 7 13
7 21 0 25 -7 4 -7 13 0 26 7 12 7 19 1 19 -6 0 -6 11 -1 30 5 18 5 30 0 30 -6
0 -6 10 0 25 6 15 6 26 0 30 -6 4 -7 13 -1 24 6 10 6 23 1 31 -5 8 -5 21 1 31
6 11 5 20 -1 24 -6 4 -6 15 0 30 6 16 6 25 -1 25 -6 0 -6 6 0 18 6 11 6 24 0
34 -6 11 -6 19 1 23 7 4 7 12 0 25 -6 12 -7 21 0 25 6 4 6 15 0 30 -6 16 -6
25 0 25 6 0 6 9 0 24 -5 15 -5 27 2 34 6 6 6 12 -1 16 -7 4 -7 15 -1 31 6 15
6 27 0 30 -6 4 -7 13 -1 24 6 10 6 23 1 31 -5 8 -5 21 1 31 6 11 5 20 -1 24
-7 4 -7 12 0 25 7 13 7 21 0 25 -6 4 -7 13 -1 24 6 10 6 23 1 31 -5 8 -5 21 1
31 6 11 5 20 -1 24 -6 3 -6 15 0 29 5 15 5 27 -2 34 -6 6 -6 12 1 16 8 5 8 13
1 26 -7 13 -7 21 0 25 7 5 8 11 1 19 -6 7 -6 17 -1 26 5 8 5 21 -1 31 -6 11
-5 20 1 24 6 3 6 15 0 30 -6 15 -6 27 0 30 6 4 6 14 -2 28 -6 12 -11 22 -11
22 0 0 5 10 12 23 8 15 8 22 1 22 -8 0 -8 6 0 20 8 14 8 20 0 20 -8 0 -8 6 0
20 8 14 8 20 0 20 -8 0 -8 6 0 20 8 14 8 20 0 20 -8 0 -8 6 0 20 8 14 8 20 0
20 -8 0 -8 6 0 20 8 14 8 20 0 20 -8 0 -8 6 0 20 8 14 8 20 0 20 -8 0 -8 6 0
20 8 14 8 20 0 20 -8 0 -8 6 0 20 8 14 8 20 0 20 -8 0 -8 6 0 20 8 14 8 20 0
20 -8 0 -8 6 0 20 8 14 8 20 0 20 -8 0 -8 6 0 20 8 14 8 20 0 20 -8 0 -8 6 0
20 8 14 8 20 0 20 -8 0 -8 6 0 20 8 14 8 20 0 20 -8 0 -8 6 0 20 8 14 8 20 0
20 -7 0 -7 7 1 23 7 12 12 22 11 22 0 0 -5 12 -11 28 -6 16 -7 27 -1 27 6 0 6
9 0 25 -6 15 -6 26 0 30 6 4 7 13 1 23 -6 11 -6 24 0 35 7 11 7 17 0 17 -6 0
-6 11 -1 30 5 19 5 30 -1 30 -6 0 -6 7 1 19 7 13 7 22 0 26 -7 4 -7 13 0 26 6
10 7 19 3 19 -4 0 -8 24 -8 53 1 28 -2 57 -4 62 -3 6 -6 19 -6 30 -3 53 -46
179 -92 272 -114 227 -336 412 -580 483 -35 10 -63 17 -63 15 0 -3 -11 0 -25
5 -14 5 -69 12 -122 16 -54 3 -100 8 -103 9 -3 2 -12 0 -19 -4 -7 -5 -30 -5
-52 -1 -22 4 -41 4 -44 0 -3 -4 -22 -4 -43 0 -21 4 -47 4 -58 0 -10 -4 -28 -4
-39 0 -11 4 -32 4 -47 -1 -14 -4 -29 -5 -32 -2 -7 8 -186 9 -186 2 0 -4 -16
-3 -34 1 -19 4 -36 6 -38 5z"/>
</g>
</svg>
