<svg xmlns="http://www.w3.org/2000/svg" viewBox="0 0 347.243 68.969">
  <g transform="matrix(1, 0, 0, 1, -21.141000747680664, -171.1300048828125)">
    <path
      d="M83.33,171.14,69.758,200.452c-23.652,8.053-24.052-8.336-39.523-6.1L21.141,174.7C48,165.028,65.274,178.95,83.33,171.14"
      transform="translate(0)"
      fill="#fff"
    />
    <path
      d="M 69.219 212.147 L 54.075 244.87 L 38.929 212.147 L 47.023 212.147 L 54.075 227.388 L 61.128 212.147 L 69.219 212.147 Z M 73.755 219.203 L 78.62 219.203 C 78.62 219.203 73.812 220.963 73.755 225.492 L 73.755 241.618 L 81.623 241.618 L 81.623 212.181 L 73.755 212.181 L 73.755 219.203 Z M 127.226 232.447 L 127.226 218.8 L 133.393 218.8 L 133.393 212.177 L 127.226 212.177 L 127.226 204.402 L 119.47 204.402 L 119.47 212.177 L 115.505 212.177 L 115.505 218.8 L 119.47 218.8 L 119.47 232.5 C 119.47 236.124 120.196 238.606 121.649 239.945 C 123.345 241.371 125.524 242.09 127.735 241.954 C 129.694 242.049 131.649 241.701 133.455 240.935 L 133.455 234.6 C 132.221 235.05 130.917 235.279 129.603 235.277 C 128.018 235.277 127.226 234.334 127.227 232.447 M 180.476 214.673 C 178.654 216.544 177.517 218.975 177.248 221.573 L 177.248 212.173 L 169.548 212.173 L 169.548 241.61 L 177.248 241.61 L 177.248 228.712 C 177.545 226.079 178.805 223.649 180.786 221.889 C 182.476 220.195 184.762 219.229 187.155 219.199 C 188.326 219.199 189.383 219.219 190.328 219.258 L 190.328 212.068 C 189.293 211.958 188.254 211.9 187.213 211.896 C 184.677 211.835 182.233 212.843 180.476 214.672 M 193.157 219.202 L 198.026 219.202 C 198.026 219.202 193.157 220.982 193.157 225.571 L 193.157 241.617 L 201.026 241.617 L 201.026 212.181 L 193.157 212.181 L 193.157 219.202 Z M 355.695 225.653 L 368.544 212.18 L 358.75 212.18 L 348.9 222.712 L 348.9 204.406 L 341.144 204.406 L 341.144 241.618 L 348.9 241.618 L 348.9 232.845 L 351.166 230.465 L 361.581 241.619 L 371.034 241.619 L 355.695 225.653 Z M 165.482 226.9 C 165.416 238.427 152.896 245.559 142.947 239.739 C 132.997 233.918 133.08 219.509 143.096 213.803 C 145.355 212.516 147.91 211.84 150.51 211.84 C 158.803 211.864 165.507 218.607 165.482 226.9 M 157.752 226.931 C 157.752 222.318 154.51 218.579 150.51 218.579 C 146.51 218.579 143.267 222.318 143.267 226.931 C 143.267 231.544 146.507 235.279 150.51 235.279 C 154.513 235.279 157.752 231.54 157.752 226.931 M 106.115 232.69 C 104.834 234.301 102.898 235.251 100.84 235.279 C 96.818 235.279 93.554 231.54 93.554 226.931 C 93.554 222.322 96.817 218.579 100.84 218.579 C 102.888 218.609 104.817 219.551 106.098 221.15 L 113.12 218.184 L 113.125 218.189 C 106.419 208.733 91.991 210.083 87.155 220.618 C 82.319 231.154 90.702 242.973 102.244 241.894 C 106.59 241.487 110.546 239.215 113.087 235.665 L 106.115 232.69 Z M 234.63 212.181 L 234.63 241.618 L 226.872 241.618 L 226.872 238.518 C 224.918 240.849 221.994 242.142 218.955 242.018 C 211.416 242.018 205.306 235.262 205.306 226.932 C 205.306 218.602 211.416 211.843 218.955 211.843 C 221.836 211.854 224.628 212.844 226.872 214.651 L 226.872 212.184 L 234.63 212.181 Z M 227.212 226.929 C 227.212 222.286 224.967 218.521 220.138 218.521 C 216.229 218.521 213.06 222.286 213.06 226.929 C 213.06 231.572 216.228 235.336 220.138 235.336 C 224.967 235.336 227.212 231.572 227.212 226.929 M 301.502 212.181 L 301.502 241.618 L 293.744 241.618 L 293.744 238.518 C 291.788 240.85 288.862 242.142 285.821 242.018 C 278.284 242.018 272.178 235.262 272.178 226.932 C 272.178 218.602 278.285 211.843 285.821 211.843 C 288.704 211.853 291.498 212.843 293.744 214.651 L 293.744 212.184 L 301.502 212.181 Z M 294.084 226.929 C 294.084 222.286 291.84 218.521 287.007 218.521 C 283.1 218.521 279.932 222.286 279.932 226.929 C 279.932 231.572 283.1 235.336 287.007 235.336 C 291.84 235.336 294.084 231.572 294.084 226.929 M 248.014 204.406 L 248.014 214.648 C 250.26 212.841 253.054 211.851 255.937 211.84 C 263.473 211.84 269.58 218.595 269.58 226.929 C 269.58 235.263 263.472 242.015 255.937 242.015 C 252.896 242.139 249.97 240.846 248.014 238.515 L 248.014 241.615 L 240.26 241.615 L 240.26 204.406 L 248.014 204.406 Z M 254.75 235.336 C 258.66 235.336 261.828 231.572 261.828 226.929 C 261.828 222.286 258.661 218.521 254.75 218.521 C 249.918 218.521 247.677 222.286 247.677 226.929 C 247.677 231.572 249.919 235.336 254.75 235.336 M 324.45 211.897 C 319.033 211.897 316.131 214.307 314.809 217.882 L 314.809 212.182 L 307.054 212.182 L 307.054 241.619 L 314.809 241.619 L 314.809 225.225 C 315.809 221.752 318.933 218.519 322.095 218.519 C 327.073 218.519 327.944 221.899 327.944 226.068 L 327.944 241.618 L 335.7 241.618 L 335.7 223.8 C 335.7 217.228 330.662 211.9 324.449 211.9"
      transform="translate(-2.667 -4.771)"
      fill="#fff"
    />
  </g>
</svg>
